<?xml version="1.0" encoding="utf-8"?>
<!-- Generator: Adobe Illustrator 24.0.2, SVG Export Plug-In . SVG Version: 6.00 Build 0)  -->
<svg version="1.1" id="Camada_1" xmlns="http://www.w3.org/2000/svg" xmlns:xlink="http://www.w3.org/1999/xlink" x="0px" y="0px"
	 viewBox="0 0 800 721.8" style="enable-background:new 0 0 800 721.8;" xml:space="preserve">
<style type="text/css">
	.st0{fill:#3D64F3;}
</style>
<g>
	<path class="st0" d="M699.5,651.1c-41.4-42.2-77.4-79.1-113.8-116.3c-61.8,62-122,122.3-182.4,183.1
		c-62.2-62.8-122-123.3-183.3-185.1c-39.2,40.7-75.2,78.1-113.9,118.3C84,614.9,70.9,581.2,64.7,545c-0.8-4.7,1.3-10.7,3.7-15.2
		c33.7-67,81.3-120.8,148.1-156.8c13.6-7.4,22.1-6.4,33.7,5c48.8,48.1,98.7,94.8,150.1,143.9c31-29.5,61.5-58.3,92-87.3
		c20.6-19.6,41.5-39,61.6-59.3c8.2-8.4,15.1-10.2,26-4.7c69.9,35.9,118.9,91.5,153.5,160.7c2.8,5.5,3.5,13.9,1.5,19.9
		C724.1,583,712.4,614.5,699.5,651.1z"/>
	<path class="st0" d="M401.1,273.3c44.2-47.1,83.1-87.8,121-129.2c10.9-11.9,19.8-13.1,33.7-5.2C671,204.6,730.9,304.8,745.2,439.6
		c-54.8-56.5-106.5-109.7-157.1-162c-64.5,64-124,122.8-183.9,182.3c-62.3-62.3-122-121.8-184.3-183.8
		c-54.8,55.8-107,108.9-159.2,162c-2-0.7-4-1.5-5.9-2.2c3.4-19.6,5.4-39.7,10.1-59c25.1-104,83.8-183.3,177.4-236.5
		c15.1-8.5,25.3-8.9,37.7,4.7C317.2,185.7,355.9,225.5,401.1,273.3z"/>
	<path class="st0" d="M400.9,3.9c31,31,64,64,95.8,95.7c-32,31.8-65,64.7-96.7,96.2c-31-31-64-64-95-95
		C336.1,69.4,369.3,35.7,400.9,3.9z"/>
</g>
</svg>
