<?xml version="1.0" encoding="utf-8"?>
<!-- Generator: Adobe Illustrator 24.0.2, SVG Export Plug-In . SVG Version: 6.00 Build 0)  -->
<svg version="1.1" id="Camada_1" xmlns="http://www.w3.org/2000/svg" xmlns:xlink="http://www.w3.org/1999/xlink" x="0px" y="0px"
	 viewBox="0 0 800 721.8" style="enable-background:new 0 0 800 721.8;" xml:space="preserve">
<style type="text/css">
	.st0{fill:#FFFFFF;}
</style>
<g>
	<path class="st0" d="M579.7,408.2C555,383,533.5,361,511.8,338.8c-36.9,37-72.8,73-108.9,109.3c-37.1-37.5-72.8-73.6-109.4-110.5
		c-23.4,24.3-44.9,46.6-68,70.6c-13.2-21.6-21-41.7-24.7-63.3c-0.5-2.8,0.8-6.4,2.2-9.1c20.1-40,48.5-72.1,88.4-93.6
		c8.1-4.4,13.2-3.8,20.1,3c29.1,28.7,58.9,56.6,89.6,85.9c18.5-17.6,36.7-34.8,54.9-52.1c12.3-11.7,24.8-23.3,36.8-35.4
		c4.9-5,9-6.1,15.5-2.8c41.7,21.4,71,54.6,91.6,95.9c1.7,3.3,2.1,8.3,0.9,11.9C594.4,367.6,587.4,386.4,579.7,408.2z"/>
	<path class="st0" d="M401.6,182.7c26.4-28.1,49.6-52.4,72.2-77.1c6.5-7.1,11.8-7.8,20.1-3.1C562.7,141.7,598.5,201.5,607,282
		c-32.7-33.7-63.6-65.5-93.8-96.7c-38.5,38.2-74,73.3-109.8,108.8c-37.2-37.2-72.8-72.7-110-109.7c-32.7,33.3-63.9,65-95,96.7
		c-1.2-0.4-2.4-0.9-3.5-1.3c2-11.7,3.2-23.7,6-35.2c15-62.1,50-109.4,105.9-141.2c9-5.1,15.1-5.3,22.5,2.8
		C351.5,130.4,374.6,154.2,401.6,182.7z"/>
	<path class="st0" d="M284.1,518.1c26.7,0,53.2-2.8,78.7,0.8c26.7,3.7,43.7,23.2,50,49.3c6.1,25.7-1.8,48.1-21.7,65.9
		c-4.1,3.6-8.8,6.6-14.7,10.9c12.8,21.4,25.7,43.2,39.9,67c-15.9,0-29.1,0.6-42.3-0.4c-3.5-0.3-7.5-4.6-9.7-8.1
		c-9.4-14.7-18-29.9-27.3-44.6c-2.2-3.6-6-6.1-9.1-9.2c-1.2,0.6-2.3,1.2-3.5,1.9c0,19.6,0,39.1,0,59.6c-14.2,0-26.8,0-40.3,0
		C284.1,646.3,284.1,581.8,284.1,518.1z M325.3,611.1c16.7,1.3,33.1,3.6,43.8-12.7c6.6-10.1,6.4-21.1-0.5-31.1
		c-10.7-15.5-26.7-12.9-43.3-11.7C325.3,574.3,325.3,592.4,325.3,611.1z"/>
	<path class="st0" d="M720.6,554.6c0,14.3,0,26.2,0,39.6c26.4,0,52.4,0,79.4,0c0,13.6,0,25.7,0,39.3c-26,0-52,0-78.9,0
		c0,13.7,0,25.8,0,39.7c26,0,51.9,0,78.9,0c0,13.4,0,25,0,37.7c-39.7,0-79.5,0-120.3,0c0-64.2,0-128.7,0-194.2
		c39.6,0,79.4,0,120.3,0c0,12.1,0,24.2,0,37.8C773.9,554.6,747.9,554.6,720.6,554.6z"/>
	<path class="st0" d="M227.9,516.4c14.3,0,26.5,0,38.6,0c0.7,1.1,1.7,1.8,1.7,2.6c0,47.2,1.3,94.6-0.7,141.7
		c-1.2,29.4-27.3,50.6-56.8,51.3c-40,0.9-63.8-14.3-71.7-45.9c-0.6-2.2-1.3-4.5-1.3-6.7c-0.1-47.2-0.1-94.4-0.1-142.7
		c13.3,0,26,0,40.4,0c0.3,4.6,0.7,9.4,0.8,14.3c0.1,38.6,0,77.1,0.1,115.7c0,19.8,6.3,26.3,24.7,26.2c17.9-0.1,24.4-7.2,24.5-27
		c0.1-37.6,0-75.3,0-112.9C227.9,528,227.9,523,227.9,516.4z"/>
	<path class="st0" d="M41,554.9c-14.8,0-27.5,0-41,0c0-13.3,0-25.4,0-38.4c40.7,0,81,0,122.3,0c0,12.3,0,24.4,0,38.2
		c-13.3,0-26.4,0-40.9,0c0,52.9,0,104.1,0,156.3c-14.1,0-26.7,0-40.3,0C41,659.5,41,608.3,41,554.9z"/>
	<path class="st0" d="M425,516.3c40.9,0,80.3,0,120.8,0c0,12.6,0,24.6,0,38.1c-12.7,0-25.4,0-39.9,0c0,52.9,0,104.4,0,156.8
		c-14,0-26.2,0-40.2,0c0-51.6,0-103.1,0-156c-14.4,0-27.1,0-40.7,0C425,541.7,425,529.6,425,516.3z"/>
	<path class="st0" d="M563.2,516.3c13.1,0,25,0,38.2,0c0.3,5.3,0.7,10.2,0.8,15c0.1,42.7,0.5,85.4-0.2,128.2
		c-0.2,11.7,3.6,15.1,14.9,14.5c15.5-0.8,31-0.2,47.3-0.2c0,13.2,0,24.5,0,37c-33.3,0-66.6,0-100.9,0
		C563.2,646.6,563.2,582.1,563.2,516.3z"/>
	<path class="st0" d="M401.5,21.9C420,40.4,439.7,60.1,458.7,79c-19.1,19-38.8,38.6-57.7,57.4c-18.5-18.5-38.2-38.2-56.7-56.7
		C362.8,61,382.6,40.9,401.5,21.9z"/>
</g>
</svg>
