<?xml version="1.0" encoding="utf-8"?>
<!-- Generator: Adobe Illustrator 24.0.2, SVG Export Plug-In . SVG Version: 6.00 Build 0)  -->
<svg version="1.1" id="Camada_1" xmlns="http://www.w3.org/2000/svg" xmlns:xlink="http://www.w3.org/1999/xlink" x="0px" y="0px"
	 viewBox="0 0 2138.6 428.2" style="enable-background:new 0 0 2138.6 428.2;" xml:space="preserve">
<style type="text/css">
	.st0{fill:#FFFFFF;}
</style>
<g>
	<path class="st0" d="M384.8,388.3c-24.7-25.2-46.1-47.2-67.8-69.4c-36.9,37-72.8,73-108.9,109.3c-37.1-37.5-72.8-73.6-109.4-110.5
		c-23.4,24.3-44.9,46.6-68,70.6c-13.2-21.6-21-41.7-24.7-63.3c-0.5-2.8,0.8-6.4,2.2-9.1c20.1-40,48.5-72.1,88.4-93.6
		c8.1-4.4,13.2-3.8,20.1,3c29.1,28.7,58.9,56.6,89.6,85.9c18.5-17.6,36.7-34.8,54.9-52.1c12.3-11.7,24.8-23.3,36.8-35.4
		c4.9-5,9-6.1,15.5-2.8c41.7,21.4,71,54.6,91.6,95.9c1.7,3.3,2.1,8.3,0.9,11.9C399.6,347.7,392.6,366.5,384.8,388.3z"/>
	<g>
		<path class="st0" d="M206.7,162.7c26.4-28.1,49.6-52.4,72.2-77.1c6.5-7.1,11.8-7.8,20.1-3.1c68.8,39.3,104.7,99.1,113.2,179.5
			c-32.7-33.7-63.6-65.5-93.8-96.7c-38.5,38.2-74,73.3-109.8,108.8c-37.2-37.2-72.8-72.7-110-109.7c-32.7,33.3-63.9,65-95,96.7
			c-1.2-0.4-2.4-0.9-3.5-1.3c2-11.7,3.2-23.7,6-35.2c15-62.1,50-109.4,105.9-141.2c9-5.1,15.1-5.3,22.5,2.8
			C156.6,110.5,179.7,134.2,206.7,162.7z"/>
		<g>
			<path class="st0" d="M1045.3,3.8c56.7,0,112.6-5.9,166.7,1.6c56.6,7.9,92.7,49.1,105.9,104.5c12.9,54.4-3.7,102-45.9,139.6
				c-8.6,7.7-18.6,13.9-31.1,23.1c27,45.4,54.5,91.5,84.6,142c-33.7,0-61.8,1.2-89.6-0.8c-7.4-0.5-15.9-9.8-20.6-17.1
				c-19.9-31.2-38.2-63.3-57.9-94.6c-4.8-7.5-12.8-13-19.3-19.5c-2.5,1.3-4.9,2.6-7.4,3.9c0,41.4,0,82.9,0,126.3
				c-30.1,0-56.7,0-85.4,0C1045.3,275.5,1045.3,138.9,1045.3,3.8z M1132.7,200.9c35.4,2.8,70.2,7.7,92.8-27
				c14-21.4,13.6-44.8-1-65.8c-22.8-32.9-56.6-27.3-91.8-24.8C1132.7,123,1132.7,161.2,1132.7,200.9z"/>
			<path class="st0" d="M1970.2,81.1c0,30.4,0,55.5,0,83.9c55.9,0,110.9,0,168.3,0c0,28.8,0,54.4,0,83.4c-55.2,0-110.2,0-167.2,0
				c0,28.9,0,54.6,0,84.2c55.1,0,110.1,0,167.3,0c0,28.4,0,53.1,0,80c-84.1,0-168.4,0-254.9,0c0-136,0-272.7,0-411.6
				c84,0,168.2,0,254.8,0c0,25.7,0,51.2,0,80.1C2083.3,81.1,2028.2,81.1,1970.2,81.1z"/>
			<path class="st0" d="M926.3,0.2c30.2,0,56.2,0,81.8,0c1.6,2.3,3.6,3.9,3.6,5.5c-0.1,100.1,2.7,200.4-1.6,300.3
				c-2.6,62.2-57.9,107.3-120.4,108.8c-84.9,2-135.3-30.3-151.9-97.2c-1.2-4.7-2.8-9.5-2.8-14.2c-0.2-100.1-0.1-200.1-0.1-302.3
				c28.2,0,55,0,85.5,0c0.5,9.8,1.6,20,1.6,30.2c0.1,81.7,0,163.4,0.1,245.2c0.1,42,13.3,55.8,52.4,55.6
				c37.9-0.2,51.7-15.2,51.8-57.2c0.2-79.8,0.1-159.6,0.1-239.3C926.3,24.8,926.3,14.2,926.3,0.2z"/>
			<path class="st0" d="M530.3,81.9c-31.3,0-58.2,0-86.9,0c0-28.2,0-53.8,0-81.3c86.3,0,171.5,0,259.2,0c0,26.2,0,51.7,0,81
				c-28.2,0-55.9,0-86.8,0c0,112.1,0,220.6,0,331.1c-29.9,0-56.5,0-85.5,0C530.3,303.5,530.3,194.9,530.3,81.9z"/>
			<path class="st0" d="M1344,0c86.6,0,170.1,0,255.9,0c0,26.7,0,52.2,0,80.8c-27,0-53.8,0-84.4,0c0,112.1,0,221.2,0,332.2
				c-29.6,0-55.5,0-85.2,0c0-109.3,0-218.5,0-330.6c-30.6,0-57.4,0-86.3,0C1344,53.8,1344,28.3,1344,0z"/>
			<path class="st0" d="M1636.7,0c27.9,0,52.9,0,81,0c0.6,11.3,1.6,21.6,1.6,31.8c0.1,90.5,1,181.1-0.5,271.6
				c-0.4,24.9,7.6,32,31.5,30.7c32.8-1.8,65.8-0.4,100.2-0.4c0,27.9,0,51.9,0,78.5c-70.7,0-141.1,0-213.8,0
				C1636.7,276.1,1636.7,139.5,1636.7,0z"/>
		</g>
	</g>
	<path class="st0" d="M206.6,2c18.5,18.5,38.3,38.2,57.2,57.1c-19.1,19-38.8,38.6-57.7,57.4c-18.5-18.5-38.2-38.2-56.7-56.7
		C167.9,41.1,187.7,21,206.6,2z"/>
</g>
</svg>
