<?xml version="1.0" encoding="utf-8"?>
<!-- Generator: Adobe Illustrator 24.0.2, SVG Export Plug-In . SVG Version: 6.00 Build 0)  -->
<svg version="1.1" id="OBJECTS" xmlns="http://www.w3.org/2000/svg" xmlns:xlink="http://www.w3.org/1999/xlink" x="0px" y="0px"
	 viewBox="0 0 500 500" style="enable-background:new 0 0 500 500;" xml:space="preserve">
<style type="text/css">
	.st0{fill:url(#SVGID_1_);}
	.st1{fill:#FFFFFF;}
	.st2{fill:none;}
</style>
<g>
	<linearGradient id="SVGID_1_" gradientUnits="userSpaceOnUse" x1="252.9689" y1="489.5001" x2="252.9689" y2="10.4998">
		<stop  offset="0" style="stop-color:#20B038"/>
		<stop  offset="1" style="stop-color:#60D66A"/>
	</linearGradient>
	<path class="st0" d="M253,112c-74.3,0-134.8,60-134.8,133.8c0,29.3,9.5,56.4,25.7,78.4L127,373.9l51.8-16.5
		c21.3,14,46.8,22.1,74.2,22.1c74.3,0,134.8-60,134.8-133.8C387.8,172,327.3,112,253,112z M331.6,301c-3.3,9.1-19.3,17.9-26.5,18.5
		c-7.2,0.7-7.2,5.9-47.2-9.7c-40-15.6-65.2-56.3-67.1-58.9c-2-2.6-16-21.1-16-40.3c0-19.2,10.2-28.6,13.7-32.5
		c3.6-3.9,11.5-4.9,11.5-4.9s4.2-0.7,6.5-0.7c2.3,0,5.6-0.3,8.8,7.5c3.3,7.8,11.1,27,12.1,29c1,2,1.6,4.2,0.3,6.8
		c-1.3,2.6-2,4.2-3.9,6.5c-2,2.3-4.1,5.1-5.9,6.8c-1.9,1.9-4,4.1-1.7,8c2.3,3.9,10.2,16.7,21.9,27c15,13.3,27.7,17.4,31.6,19.3
		c3.9,2,6.2,1.6,8.5-1c2.3-2.6,9.8-11.4,12.5-15.3c2.6-3.9,5.2-3.2,8.8-1.9c3.6,1.3,22.9,10.7,26.9,12.7c3.9,2,6.5,2.9,7.5,4.6
		C334.9,284.1,334.9,291.9,331.6,301z"/>
	<path class="st1" d="M326.4,277.9c-3.9-1.9-23.3-11.4-26.9-12.7c-3.6-1.3-6.2-2-8.8,1.9c-2.6,3.9-10.2,12.7-12.5,15.3
		c-2.3,2.6-4.6,2.9-8.5,1c-3.9-1.9-16.6-6.1-31.6-19.3c-11.7-10.4-19.6-23.1-21.9-27c-2.3-3.9-0.2-6,1.7-8c1.8-1.8,3.9-4.6,5.9-6.8
		c2-2.3,2.6-3.9,3.9-6.5c1.3-2.6,0.7-4.9-0.3-6.8c-1-1.9-8.8-21.1-12.1-29c-3.3-7.8-6.5-7.5-8.8-7.5c-2.3,0-6.5,0.7-6.5,0.7
		s-7.9,1-11.5,4.9c-3.6,3.9-13.7,13.3-13.7,32.5c0,19.2,14.1,37.7,16,40.3c2,2.6,27.2,43.3,67.1,58.9c40,15.6,40,10.4,47.2,9.7
		c7.2-0.6,23.2-9.4,26.5-18.5c3.3-9.1,3.3-16.9,2.3-18.5C332.9,280.8,330.3,279.8,326.4,277.9z"/>
	<path class="st2" d="M253,112c-74.3,0-134.8,60-134.8,133.8c0,29.3,9.5,56.4,25.7,78.4L127,373.9l51.8-16.5
		c21.3,14,46.8,22.1,74.2,22.1c74.3,0,134.8-60,134.8-133.8C387.8,172,327.3,112,253,112z"/>
	<path class="st1" d="M253,86.7c-88.6,0-160.3,71.2-160.3,159.1c0,30.1,8.4,58.2,23,82.2l-28.9,85.4l88.8-28.2
		c23,12.6,49.4,19.8,77.5,19.8c88.5,0,160.3-71.2,160.3-159.1C413.3,157.9,341.5,86.7,253,86.7z M253,379.6
		c-27.4,0-52.9-8.2-74.2-22.1L127,373.9l16.8-49.7c-16.1-22.1-25.7-49.2-25.7-78.4C118.2,172,178.6,112,253,112
		c74.3,0,134.8,60,134.8,133.8C387.8,319.5,327.3,379.6,253,379.6z"/>
</g>
</svg>
